# xmcd
#
# Track frame offsets: 
#        150
#        13205
#        23231
#        34224
#        43410
#        55265
#        69073
#        81535
#        92883
#        103305
#        115062
#        127314
#        141433
#        154127
#        168616
#        177643
#        190504
#        201702
#        210810
#        219878
#        230232
#        242286
#        262468
#        272627
#        286289
#        299077
#        313034
#
# Disc length: 4319 seconds
#
# Revision: 1
# Processed by: cddbd v1.5.2PL0 Copyright (c) Steve Scherf et al.
# Submitted via: ExactAudioCopy v1.0b1
#
DISCID=b310dd1b
DTITLE=Little Walter - Little Walter - The Complete Chess Masters 1950
DTITLE=1967 [CD4]
DYEAR=2009
DGENRE=Blues
TTITLE0=Ah'w Baby
TTITLE1=I've Had My Fun (alt 1)
TTITLE2=I've Had My Fun (alt 2)
TTITLE3=I've Had My Fun
TTITLE4=The Toddle
TTITLE5=Confessin' The Blues
TTITLE6=Key To The Highway
TTITLE7=Rock Bottom (alt)
TTITLE8=Rock Bottom
TTITLE9=Walkin' On (Rock Bottom alt)
TTITLE10=You Gonna Be Sorry (Someday Baby)  (alt - take 5)
TTITLE11=You Gonna Be Sorry (Someday Baby) (alt)
TTITLE12=You Gonna Be Sorry (Someday Baby)
TTITLE13=One Of These Mornings (inst)
TTITLE14=Baby
TTITLE15=My Baby Is Sweeter (alt)
TTITLE16=My Baby Is Sweeter
TTITLE17=Crazy Mixed Up World (alt))
TTITLE18=Crazy Mixed Up World
TTITLE19=Worried Life (alt)
TTITLE20=Worried Life
TTITLE21=Everthing's Gonna Be Alright (alt - take 1)
TTITLE22=Everything's Gonna Be Alright (alt 1)
TTITLE23=Everything's Gonna Be Alright (alt 2)
TTITLE24=Everything's Gonna Be Alright
TTITLE25=Mean Old Frisco (alt)
TTITLE26=Mean Old Frisco
EXTD=
EXTT0=
EXTT1=
EXTT2=
EXTT3=
EXTT4=
EXTT5=
EXTT6=
EXTT7=
EXTT8=
EXTT9=
EXTT10=
EXTT11=
EXTT12=
EXTT13=
EXTT14=
EXTT15=
EXTT16=
EXTT17=
EXTT18=
EXTT19=
EXTT20=
EXTT21=
EXTT22=
EXTT23=
EXTT24=
EXTT25=
EXTT26=
PLAYORDER=
